<svg xmlns="http://www.w3.org/2000/svg" viewBox="0 0 1200 980" font-family="Georgia, 'Times New Roman', serif">
  <defs>
    <radialGradient id="nightGround" cx="50%" cy="45%" r="75%">
      <stop offset="0%" stop-color="#2e3345"/>
      <stop offset="55%" stop-color="#232738"/>
      <stop offset="100%" stop-color="#181b28"/>
    </radialGradient>
    <radialGradient id="hill" cx="50%" cy="40%" r="60%">
      <stop offset="0%" stop-color="#363c54"/>
      <stop offset="100%" stop-color="#232738" stop-opacity="0"/>
    </radialGradient>
    <radialGradient id="fog" cx="50%" cy="50%" r="55%">
      <stop offset="0%" stop-color="#8fa3c4" stop-opacity="0.32"/>
      <stop offset="100%" stop-color="#8fa3c4" stop-opacity="0"/>
    </radialGradient>
    <radialGradient id="lampGlow" cx="50%" cy="50%" r="50%">
      <stop offset="0%" stop-color="#ffd98a" stop-opacity="0.5"/>
      <stop offset="100%" stop-color="#ffd98a" stop-opacity="0"/>
    </radialGradient>
    <radialGradient id="dangerZone" cx="50%" cy="50%" r="50%">
      <stop offset="0%" stop-color="#c05555" stop-opacity="0.13"/>
      <stop offset="80%" stop-color="#c05555" stop-opacity="0.10"/>
      <stop offset="100%" stop-color="#c05555" stop-opacity="0"/>
    </radialGradient>
  </defs>

  <rect width="1200" height="980" fill="url(#nightGround)"/>

  <!-- ===== КООРДИНАТНАЯ СЕТКА (1 клетка = 50 studs = 125 px; центр 600,450 = (0,0)) ===== -->
  <g stroke="#3a4058" stroke-width="1" opacity="0.55">
    <line x1="100" y1="75"  x2="1100" y2="75"/>
    <line x1="100" y1="200" x2="1100" y2="200"/>
    <line x1="100" y1="325" x2="1100" y2="325"/>
    <line x1="100" y1="450" x2="1100" y2="450"/>
    <line x1="100" y1="575" x2="1100" y2="575"/>
    <line x1="100" y1="700" x2="1100" y2="700"/>
    <line x1="100" y1="825" x2="1100" y2="825"/>
    <line x1="100"  y1="75" x2="100"  y2="825"/>
    <line x1="225"  y1="75" x2="225"  y2="825"/>
    <line x1="350"  y1="75" x2="350"  y2="825"/>
    <line x1="475"  y1="75" x2="475"  y2="825"/>
    <line x1="600"  y1="75" x2="600"  y2="825"/>
    <line x1="725"  y1="75" x2="725"  y2="825"/>
    <line x1="850"  y1="75" x2="850"  y2="825"/>
    <line x1="975"  y1="75" x2="975"  y2="825"/>
    <line x1="1100" y1="75" x2="1100" y2="825"/>
  </g>
  <!-- оси через центр -->
  <line x1="100" y1="450" x2="1100" y2="450" stroke="#4d5578" stroke-width="1.6" opacity="0.8"/>
  <line x1="600" y1="75"  x2="600"  y2="825" stroke="#4d5578" stroke-width="1.6" opacity="0.8"/>
  <!-- подписи сетки в studs -->
  <g fill="#5d6584" font-size="12" text-anchor="middle">
    <text x="100" y="845">X −200</text><text x="225" y="845">−150</text>
    <text x="350" y="845">−100</text><text x="475" y="845">−50</text>
    <text x="600" y="845">0</text><text x="725" y="845">+50</text>
    <text x="850" y="845">+100</text><text x="975" y="845">+150</text>
    <text x="1100" y="845">+200</text>
  </g>
  <g fill="#5d6584" font-size="12" text-anchor="end">
    <text x="94" y="79">Z −150</text><text x="94" y="204">−100</text>
    <text x="94" y="329">−50</text><text x="94" y="454">0</text>
    <text x="94" y="579">+50</text><text x="94" y="704">+100</text>
    <text x="94" y="829">+150</text>
  </g>

  <!-- ХОЛМЫ -->
  <ellipse cx="170" cy="170" rx="180" ry="105" fill="url(#hill)"/>
  <ellipse cx="1050" cy="730" rx="210" ry="120" fill="url(#hill)"/>
  <ellipse cx="190" cy="770" rx="190" ry="100" fill="url(#hill)"/>
  <ellipse cx="1040" cy="470" rx="150" ry="90" fill="url(#hill)"/>

  <!-- ЗОНЫ РИСКА (кластер могил в досягаемости от Hazard'ов) -->
  <ellipse cx="390" cy="640" rx="230" ry="160" fill="url(#dangerZone)"/>
  <ellipse cx="390" cy="640" rx="230" ry="160" fill="none" stroke="#c05555" stroke-width="1.5" stroke-dasharray="8 7" opacity="0.55"/>
  <text x="390" y="500" fill="#d98a8a" font-size="14" font-weight="bold" text-anchor="middle" letter-spacing="1">ЗОНА РИСКА А · нижняя петля</text>
  <text x="390" y="518" fill="#b07070" font-size="12" text-anchor="middle" font-style="italic">4 hazard'а + 5 могил: авария → зомби догоняют</text>

  <ellipse cx="880" cy="235" rx="200" ry="135" fill="url(#dangerZone)" opacity="0.6"/>
  <ellipse cx="880" cy="235" rx="200" ry="135" fill="none" stroke="#c05555" stroke-width="1.5" stroke-dasharray="8 7" opacity="0.4"/>
  <text x="880" y="90" fill="#d98a8a" font-size="14" font-weight="bold" text-anchor="middle" letter-spacing="1">ЗОНА РИСКА Б · верхняя петля</text>
  <text x="880" y="108" fill="#b07070" font-size="12" text-anchor="middle" font-style="italic">2 hazard'а, могилы дальше от дороги</text>

  <!-- ТУМАН -->
  <ellipse cx="430" cy="650" rx="150" ry="80" fill="url(#fog)"/>
  <ellipse cx="820" cy="265" rx="140" ry="70" fill="url(#fog)"/>

  <!-- ===== ТРАССА: восьмёрка, ширина 100 px = 40 studs ===== -->
  <path d="M 600 450
           C 370 450 220 560 220 660
           C 220 770 400 780 520 700
           C 590 655 610 560 600 450
           C 590 340 610 245 680 200
           C 800 120 980 130 980 240
           C 980 340 830 450 600 450 Z"
        fill="none" stroke="#50566f" stroke-width="100" stroke-linejoin="round"/>
  <path d="M 600 450
           C 370 450 220 560 220 660
           C 220 770 400 780 520 700
           C 590 655 610 560 600 450
           C 590 340 610 245 680 200
           C 800 120 980 130 980 240
           C 980 340 830 450 600 450 Z"
        fill="none" stroke="#666d8c" stroke-width="88" stroke-linejoin="round"/>
  <path d="M 600 450
           C 370 450 220 560 220 660
           C 220 770 400 780 520 700
           C 590 655 610 560 600 450
           C 590 340 610 245 680 200
           C 800 120 980 130 980 240
           C 980 340 830 450 600 450 Z"
        fill="none" stroke="#c9cede" stroke-width="2.5" stroke-dasharray="16 14" opacity="0.7"/>
  <!-- ширина дороги -->
  <g stroke="#9aa2c0" stroke-width="1.5" fill="#9aa2c0">
    <line x1="285" y1="530" x2="335" y2="586"/>
    <path d="M 285 530 l 3 12 l 8 -8 z"/>
    <path d="M 335 586 l -3 -12 l -8 8 z"/>
  </g>
  <text x="360" y="560" fill="#9aa2c0" font-size="13" font-style="italic">≈ 40 studs</text>

  <!-- Направление движения -->
  <g fill="#e8ecf7">
    <path d="M 250 500 l -16 24 l 27 -3 z" transform="rotate(35 250 500)"/>
    <path d="M 900 388 l -16 24 l 27 -3 z" transform="rotate(212 900 388)"/>
    <path d="M 560 760 l -16 24 l 27 -3 z" transform="rotate(280 560 760)"/>
  </g>

  <!-- СТАРТ -->
  <g transform="translate(600,450)">
    <rect x="-15" y="-66" width="10" height="66" fill="#98a0bd"/>
    <rect x="5" y="-66" width="10" height="66" fill="#98a0bd"/>
    <path d="M -15 -66 Q 0 -90 15 -66" fill="none" stroke="#98a0bd" stroke-width="9"/>
    <circle r="7" fill="#e8ecf7"/>
  </g>
  <text x="640" y="472" fill="#e8ecf7" font-size="15" font-weight="bold">СТАРТ (0, 0)</text>
  <text x="640" y="489" fill="#9aa2c0" font-size="12">спавн багги: (0, +8)</text>

  <!-- МАВЗОЛЕЙ (0, 82) -->
  <g transform="translate(600,655)">
    <rect x="-40" y="-28" width="80" height="50" fill="#3d4258" stroke="#8a91ad" stroke-width="2.5"/>
    <path d="M -48 -28 L 0 -55 L 48 -28 Z" fill="#4a5069" stroke="#8a91ad" stroke-width="2.5"/>
    <rect x="-10" y="-6" width="20" height="28" fill="#15171f"/>
  </g>
  <text x="600" y="712" fill="#c9cede" font-size="14" font-weight="bold" text-anchor="middle">МАВЗОЛЕЙ (0, +82)</text>

  <!-- ЧАСОВНЯ (92, -108) -->
  <g transform="translate(830,180)">
    <rect x="-24" y="-20" width="48" height="38" fill="#3d4258" stroke="#8a91ad" stroke-width="2"/>
    <path d="M -30 -20 L 0 -43 L 30 -20 Z" fill="#4a5069" stroke="#8a91ad" stroke-width="2"/>
    <rect x="-3" y="-58" width="6" height="17" fill="#8a91ad"/>
  </g>
  <text x="830" y="228" fill="#c9cede" font-size="13" font-weight="bold" text-anchor="middle">ЧАСОВНЯ (+92, −108)</text>

  <!-- ===== HAZARDS (красные плиты) с координатами ===== -->
  <g>
    <g transform="translate(390,440)"><rect x="-9" y="-12" width="18" height="24" rx="7" fill="#d98a8a" stroke="#a85f5f" stroke-width="2"/><text x="0" y="-19" fill="#e8a0a0" font-size="11" text-anchor="middle">H1 (−84, −4)</text></g>
    <g transform="translate(260,600)"><rect x="-9" y="-12" width="18" height="24" rx="7" fill="#d98a8a" stroke="#a85f5f" stroke-width="2"/><text x="0" y="-19" fill="#e8a0a0" font-size="11" text-anchor="middle">H2 (−136, +60)</text></g>
    <g transform="translate(475,738)"><rect x="-9" y="-12" width="18" height="24" rx="7" fill="#d98a8a" stroke="#a85f5f" stroke-width="2"/><text x="0" y="32" fill="#e8a0a0" font-size="11" text-anchor="middle">H3 (−50, +115)</text></g>
    <g transform="translate(595,600)"><rect x="-9" y="-12" width="18" height="24" rx="7" fill="#d98a8a" stroke="#a85f5f" stroke-width="2"/><text x="46" y="4" fill="#e8a0a0" font-size="11" text-anchor="middle">H4 (−2, +60)</text></g>
    <g transform="translate(620,380)"><rect x="-9" y="-12" width="18" height="24" rx="7" fill="#d98a8a" stroke="#a85f5f" stroke-width="2"/><text x="52" y="4" fill="#e8a0a0" font-size="11" text-anchor="middle">H5 (+8, −28)</text></g>
    <g transform="translate(675,250)"><rect x="-9" y="-12" width="18" height="24" rx="7" fill="#d98a8a" stroke="#a85f5f" stroke-width="2"/><text x="0" y="-19" fill="#e8a0a0" font-size="11" text-anchor="middle">H6 (+30, −80)</text></g>
    <g transform="translate(915,285)"><rect x="-9" y="-12" width="18" height="24" rx="7" fill="#d98a8a" stroke="#a85f5f" stroke-width="2"/><text x="0" y="32" fill="#e8a0a0" font-size="11" text-anchor="middle">H7 (+126, −66)</text></g>
  </g>

  <!-- ===== GRAVES (зелёные кресты) с координатами ===== -->
  <g>
    <g transform="translate(330,570)"><g fill="none" stroke="#9fd8a8" stroke-width="4" stroke-linecap="round"><line y1="-12" y2="12"/><line x1="-8" y1="-4" x2="8" y2="-4"/></g><text x="0" y="-19" fill="#a8dcb0" font-size="11" text-anchor="middle">G1 (−108, +48)</text></g>
    <g transform="translate(280,690)"><g fill="none" stroke="#9fd8a8" stroke-width="4" stroke-linecap="round"><line y1="-12" y2="12"/><line x1="-8" y1="-4" x2="8" y2="-4"/></g><text x="0" y="30" fill="#a8dcb0" font-size="11" text-anchor="middle">G2 (−128, +96)</text></g>
    <g transform="translate(430,760)"><g fill="none" stroke="#9fd8a8" stroke-width="4" stroke-linecap="round"><line y1="-12" y2="12"/><line x1="-8" y1="-4" x2="8" y2="-4"/></g><text x="0" y="30" fill="#a8dcb0" font-size="11" text-anchor="middle">G3 (−68, +124)</text></g>
    <g transform="translate(510,610)"><g fill="none" stroke="#9fd8a8" stroke-width="4" stroke-linecap="round"><line y1="-12" y2="12"/><line x1="-8" y1="-4" x2="8" y2="-4"/></g><text x="-2" y="-19" fill="#a8dcb0" font-size="11" text-anchor="middle">G4 (−36, +64)</text></g>
    <g transform="translate(700,690)"><g fill="none" stroke="#9fd8a8" stroke-width="4" stroke-linecap="round"><line y1="-12" y2="12"/><line x1="-8" y1="-4" x2="8" y2="-4"/></g><text x="0" y="30" fill="#a8dcb0" font-size="11" text-anchor="middle">G5 (+40, +96)</text></g>
    <g transform="translate(700,300)"><g fill="none" stroke="#9fd8a8" stroke-width="4" stroke-linecap="round"><line y1="-12" y2="12"/><line x1="-8" y1="-4" x2="8" y2="-4"/></g><text x="0" y="-19" fill="#a8dcb0" font-size="11" text-anchor="middle">G6 (+40, −60)</text></g>
    <g transform="translate(760,140)"><g fill="none" stroke="#9fd8a8" stroke-width="4" stroke-linecap="round"><line y1="-12" y2="12"/><line x1="-8" y1="-4" x2="8" y2="-4"/></g><text x="0" y="-19" fill="#a8dcb0" font-size="11" text-anchor="middle">G7 (+64, −124)</text></g>
    <g transform="translate(920,330)"><g fill="none" stroke="#9fd8a8" stroke-width="4" stroke-linecap="round"><line y1="-12" y2="12"/><line x1="-8" y1="-4" x2="8" y2="-4"/></g><text x="42" y="4" fill="#a8dcb0" font-size="11" text-anchor="middle">G8 (+128, −48)</text></g>
    <g transform="translate(1030,190)"><g fill="none" stroke="#9fd8a8" stroke-width="4" stroke-linecap="round"><line y1="-12" y2="12"/><line x1="-8" y1="-4" x2="8" y2="-4"/></g><text x="0" y="-19" fill="#a8dcb0" font-size="11" text-anchor="middle">G9 (+172, −104)</text></g>
    <g transform="translate(500,340)"><g fill="none" stroke="#9fd8a8" stroke-width="4" stroke-linecap="round"><line y1="-12" y2="12"/><line x1="-8" y1="-4" x2="8" y2="-4"/></g><text x="0" y="-19" fill="#a8dcb0" font-size="11" text-anchor="middle">G10 (−40, −44)</text></g>
  </g>

  <!-- ===== LAMPS (фонари) с координатами ===== -->
  <g>
    <g transform="translate(600,405)"><circle r="24" fill="url(#lampGlow)"/><circle r="5" fill="#ffd98a"/><text x="-40" y="-12" fill="#ffd98a" font-size="11" text-anchor="middle">L1 (0, −18)</text></g>
    <g transform="translate(233,608)"><circle r="24" fill="url(#lampGlow)"/><circle r="5" fill="#ffd98a"/><text x="-6" y="-30" fill="#ffd98a" font-size="11" text-anchor="middle">L2 (−147, +63)</text></g>
    <g transform="translate(420,773)"><circle r="24" fill="url(#lampGlow)"/><circle r="5" fill="#ffd98a"/><text x="-52" y="4" fill="#ffd98a" font-size="11" text-anchor="middle">L3 (−72, +129)</text></g>
    <g transform="translate(645,215)"><circle r="24" fill="url(#lampGlow)"/><circle r="5" fill="#ffd98a"/><text x="-52" y="4" fill="#ffd98a" font-size="11" text-anchor="middle">L4 (+18, −94)</text></g>
    <g transform="translate(968,285)"><circle r="24" fill="url(#lampGlow)"/><circle r="5" fill="#ffd98a"/><text x="52" y="4" fill="#ffd98a" font-size="11" text-anchor="middle">L5 (+147, −66)</text></g>
    <g transform="translate(555,660)"><circle r="24" fill="url(#lampGlow)"/><circle r="5" fill="#ffd98a"/><text x="-50" y="-14" fill="#ffd98a" font-size="11" text-anchor="middle">L6 (−18, +84)</text></g>
  </g>

  <!-- ===== DEAD TREES ===== -->
  <g stroke="#7d7466" stroke-width="4" fill="none" stroke-linecap="round">
    <g transform="translate(180,420)"><line y1="16" y2="-14"/><line y1="-8" x2="-12" y2="-22"/><line y1="-4" x2="12" y2="-18"/></g>
    <g transform="translate(320,820)"><line y1="16" y2="-14"/><line y1="-8" x2="-12" y2="-22"/><line y1="-4" x2="12" y2="-18"/></g>
    <g transform="translate(760,780)"><line y1="16" y2="-14"/><line y1="-8" x2="-12" y2="-22"/><line y1="-4" x2="12" y2="-18"/></g>
    <g transform="translate(1080,430)"><line y1="16" y2="-14"/><line y1="-8" x2="-12" y2="-22"/><line y1="-4" x2="12" y2="-18"/></g>
    <g transform="translate(560,120)"><line y1="16" y2="-14"/><line y1="-8" x2="-12" y2="-22"/><line y1="-4" x2="12" y2="-18"/></g>
    <g transform="translate(150,620)"><line y1="16" y2="-14"/><line y1="-8" x2="-12" y2="-22"/><line y1="-4" x2="12" y2="-18"/></g>
  </g>
  <g fill="#8d8476" font-size="10" text-anchor="middle">
    <text x="180" y="452">T1 (−168, −12)</text>
    <text x="320" y="852">T2 (−112, +148)</text>
    <text x="760" y="812">T3 (+64, +132)</text>
    <text x="1080" y="462">T4 (+192, −8)</text>
    <text x="560" y="152">T5 (−16, −132)</text>
    <text x="150" y="652">T6 (−180, +68)</text>
  </g>

  <!-- ===== ЛЕГЕНДА ===== -->
  <g transform="translate(108,868)">
    <rect x="-14" y="-12" width="1012" height="112" rx="10" fill="#141724" opacity="0.9" stroke="#3c4258"/>
    <text x="0" y="10" fill="#e8ecf7" font-size="15" font-weight="bold" letter-spacing="1">ЛЕГЕНДА · координаты = MapLayout (studs), центр (0,0) = стартовые ворота · сетка 50 studs</text>

    <g transform="translate(10,42)" fill="none" stroke="#9fd8a8" stroke-width="4" stroke-linecap="round"><line y1="-9" y2="9"/><line x1="-6" y1="-3" x2="6" y2="-3"/></g>
    <text x="26" y="47" fill="#c9cede" font-size="13">Grave ×10 — спавн зомби</text>

    <rect x="216" y="32" width="14" height="19" rx="6" fill="#d98a8a" stroke="#a85f5f" stroke-width="1.5"/>
    <text x="240" y="47" fill="#c9cede" font-size="13">Hazard ×7 — урон+замедление</text>

    <g transform="translate(468,42)"><circle r="9" fill="url(#lampGlow)"/><circle r="3.5" fill="#ffd98a"/></g>
    <text x="486" y="47" fill="#c9cede" font-size="13">FlickerLight ×6</text>

    <g transform="translate(630,42)" stroke="#7d7466" stroke-width="3" fill="none" stroke-linecap="round"><line y1="10" y2="-8"/><line y1="-4" x2="-7" y2="-13"/><line y1="-1" x2="7" y2="-10"/></g>
    <text x="648" y="47" fill="#c9cede" font-size="13">DeadTree ×6 (декор)</text>

    <ellipse cx="822" cy="42" rx="13" ry="8" fill="none" stroke="#c05555" stroke-width="1.5" stroke-dasharray="5 4"/>
    <text x="844" y="47" fill="#c9cede" font-size="13">зона риска</text>

    <text x="0" y="82" fill="#9aa2c0" font-size="12.5" font-style="italic">Расстановку выполняет MapBuilder по данным ReplicatedStorage.MapLayout · высота Y — рейкастом по земле · допуск ручных объектов ±6 studs</text>
  </g>

  <text x="600" y="52" fill="#8f97b8" font-size="19" text-anchor="middle" letter-spacing="4">GRAVEYARD RACER · ДЕТАЛЬНЫЙ ПЛАН · MapLayout v1</text>
</svg>
